<svg xmlns="http://www.w3.org/2000/svg" width="76" height="62.418" viewBox="0 0 76 62.418">
  <g id="Group_8" data-name="Group 8" transform="translate(-191.5 -49.671)">
    <path id="Path_12" data-name="Path 12" d="M265.923,49.671H193.077a1.577,1.577,0,0,0-1.577,1.577v59.264a1.577,1.577,0,0,0,1.577,1.577h72.845a1.577,1.577,0,0,0,1.577-1.577V51.248A1.577,1.577,0,0,0,265.923,49.671Zm-71.268,3.155h69.69v7.3h-69.69Zm0,56.109V63.276h69.69v45.659Z" fill="#83d0f4"/>
    <path id="Path_13" data-name="Path 13" d="M230.032,81.244a1.577,1.577,0,1,0,1.577,1.577A1.577,1.577,0,0,0,230.032,81.244Z" transform="translate(-30.835 -26.344)" fill="#83d0f4"/>
    <path id="Path_14" data-name="Path 14" d="M262.13,81.2a1.577,1.577,0,1,1-1.578,1.578A1.577,1.577,0,0,1,262.13,81.2Z" transform="translate(-57.616 -26.304)" fill="#83d0f4"/>
    <path id="Path_15" data-name="Path 15" d="M294.275,81.244a1.577,1.577,0,1,0,1.577,1.577A1.578,1.578,0,0,0,294.275,81.244Z" transform="translate(-84.437 -26.344)" fill="#83d0f4"/>
    <path id="Path_16" data-name="Path 16" d="M329.839,219.593l1.12-1.112a1.577,1.577,0,1,0-2.232-2.216l-6.168,6.152a1.578,1.578,0,0,0,0,2.231h0l6.168,6.168a1.578,1.578,0,0,0,2.232-2.232l-1.12-1.112-3.944-3.943Z" transform="translate(-108.968 -138.539)" fill="#83d0f4"/>
    <path id="Path_17" data-name="Path 17" d="M466.184,216.734a1.578,1.578,0,0,0-2.232,2.232l1.12,1.112,3.944,3.944-3.944,3.944-1.12,1.112a1.578,1.578,0,1,0,2.232,2.232l6.168-6.168a1.577,1.577,0,0,0,0-2.231h0Z" transform="translate(-226.943 -139.009)" fill="#83d0f4"/>
    <path id="Path_18" data-name="Path 18" d="M401.544,198a1.577,1.577,0,0,0-1.968,1.051l0,.014-5.7,18.361A1.578,1.578,0,0,0,394.9,219.4a1.64,1.64,0,0,0,.473.071,1.578,1.578,0,0,0,1.506-1.112l5.7-18.377a1.578,1.578,0,0,0-1.033-1.977Z" transform="translate(-168.795 -123.708)" fill="#83d0f4"/>
  </g>
</svg>
