<svg xmlns="http://www.w3.org/2000/svg" width="76" height="62.42" viewBox="0 0 76 62.42"><g data-name="Group 8" fill="#83d0f4"><path data-name="Path 12" d="M74.42 0H1.58A1.58 1.58 0 000 1.58v59.26a1.58 1.58 0 001.58 1.58h72.84A1.58 1.58 0 0076 60.84V1.58A1.58 1.58 0 0074.42 0zM3.15 3.15h69.7v7.3H3.14zm0 56.11V13.61h69.7v45.65z"/><path data-name="Path 13" d="M7.7 5.23A1.58 1.58 0 109.27 6.8 1.58 1.58 0 007.7 5.23z"/><path data-name="Path 14" d="M13.01 5.23a1.58 1.58 0 11-1.57 1.57A1.58 1.58 0 0113 5.23z"/><path data-name="Path 15" d="M18.34 5.23A1.58 1.58 0 1019.9 6.8a1.58 1.58 0 00-1.57-1.58z"/><path data-name="Path 16" d="M29.37 31.38l1.12-1.1a1.58 1.58 0 10-2.23-2.22l-6.17 6.15a1.58 1.58 0 000 2.23l6.17 6.17a1.58 1.58 0 002.23-2.24l-1.12-1.1-3.94-3.95z"/><path data-name="Path 17" d="M47.74 28.05a1.58 1.58 0 00-2.23 2.24l1.12 1.1 3.94 3.95-3.94 3.95-1.12 1.1a1.58 1.58 0 102.23 2.24l6.17-6.17a1.58 1.58 0 000-2.23z"/><path data-name="Path 18" d="M41.25 24.62a1.58 1.58 0 00-1.97 1.05v.02l-5.7 18.36a1.58 1.58 0 001.03 1.97 1.64 1.64 0 00.47.07 1.58 1.58 0 001.5-1.11l5.7-18.38a1.58 1.58 0 00-1.03-1.97z"/></g></svg>