<svg xmlns="http://www.w3.org/2000/svg" width="92.601" height="62.877" viewBox="0 0 92.601 62.877">
  <g id="Group_76" data-name="Group 76" transform="translate(-1131 -6900)">
    <g id="Group_74" data-name="Group 74" transform="translate(1131 6900)">
      <path id="Path_76" data-name="Path 76" d="M99.335,207.454H72.38a1.366,1.366,0,1,0,0,2.731H99.335a1.366,1.366,0,1,0,0-2.731Z" transform="translate(-65.01 -178.531)" fill="#83d0f4"/>
      <path id="Path_77" data-name="Path 77" d="M103.846,177.951H72.38a1.366,1.366,0,1,0,0,2.731h31.467a1.366,1.366,0,1,0,0-2.731Z" transform="translate(-65.01 -154.668)" fill="#83d0f4"/>
      <path id="Path_78" data-name="Path 78" d="M108.358,148.454H72.38a1.366,1.366,0,1,0,0,2.731h35.978a1.366,1.366,0,0,0,0-2.731Z" transform="translate(-65.01 -130.81)" fill="#83d0f4"/>
      <path id="Path_79" data-name="Path 79" d="M119.173,103.611V57.305c0-.012,0-.024,0-.037s0-.041,0-.061,0-.038-.007-.056,0-.036-.008-.054-.008-.04-.013-.059-.008-.033-.012-.049-.012-.039-.019-.058-.011-.033-.018-.049-.015-.035-.022-.052-.016-.034-.025-.051-.016-.031-.025-.046-.02-.034-.031-.051l-.029-.043-.036-.048-.036-.042-.037-.041c-.015-.015-.03-.029-.046-.044s-.016-.017-.026-.025l-.011-.009-.052-.041-.039-.029c-.017-.012-.035-.023-.053-.033l-.043-.026c-.017-.01-.035-.018-.053-.026s-.032-.016-.048-.023l-.054-.021-.051-.019-.055-.015-.054-.014-.053-.009-.059-.009-.051,0-.063,0H45.418l-.038,0-.06,0-.058.007-.052.008-.061.013L45.1,56.2l-.059.019L45,56.239l-.053.023-.05.024-.047.026-.05.031-.043.03-.047.036-.042.036-.041.038c-.015.014-.029.03-.043.045l-.025.026-4.666,5.369-.009.011c-.014.017-.028.034-.041.052s-.02.025-.029.038-.023.035-.034.053-.018.028-.026.043-.018.036-.027.053-.016.032-.023.048-.014.036-.021.054-.013.034-.019.051-.01.036-.015.054-.01.037-.014.055-.006.035-.009.052-.007.04-.009.06,0,.033,0,.05,0,.043,0,.064c0,0,0,.01,0,.015v46.675a1.147,1.147,0,0,0,1.147,1.147h72.607a1.143,1.143,0,0,0,.809-.334,1.038,1.038,0,0,0,.1-.1l4.666-5.368A1.145,1.145,0,0,0,119.173,103.611Zm-2.294-.778h-2.372V63.1l2.372-2.729Zm-4.666-35.667H41.9V63.821h70.313ZM41.9,69.46h70.313V91.449H41.9Zm72.607,35.667h1.012l-1.012,1.164Zm1-46.675-2.672,3.075H43.25l1.021-1.188v.034l1.622-1.921h69.616Zm-3.3,46.675V108.2H41.9V93.743h70.313v11.384Z" transform="translate(-39.605 -56.158)" fill="#83d0f4"/>
    </g>
    <g id="Group_75" data-name="Group 75" transform="translate(1193.087 6915.602)">
      <g id="Group_73" data-name="Group 73" transform="translate(0.419 0.837)">
        <rect id="Rectangle_38" data-name="Rectangle 38" width="29.622" height="10.492" transform="translate(0 0)" fill="#fff"/>
        <rect id="Rectangle_39" data-name="Rectangle 39" width="23.502" height="36.3" transform="translate(3.097 9.196)" fill="#fff"/>
      </g>
      <g id="Group_72" data-name="Group 72" transform="translate(0 0)">
        <g id="Group_57" data-name="Group 57">
          <path id="Path_63" data-name="Path 63" d="M356.362,187.632h-28.73a.892.892,0,0,1-.892-.892v-9.6a.892.892,0,0,1,.892-.892h28.73a.892.892,0,0,1,.892.892v9.6A.892.892,0,0,1,356.362,187.632Zm-27.837-1.784H355.47v-7.816H328.524Z" transform="translate(-326.74 -176.249)" fill="#83d0f4"/>
        </g>
        <g id="Group_58" data-name="Group 58" transform="translate(2.831 9.541)">
          <path id="Path_64" data-name="Path 64" d="M345.544,259.569h-4.386a.892.892,0,0,1-.892-.892V222.727a.892.892,0,1,1,1.784,0v35.058h3.494a.892.892,0,1,1,0,1.784Z" transform="translate(-340.266 -221.835)" fill="#83d0f4"/>
        </g>
        <g id="Group_59" data-name="Group 59" transform="translate(12.424 9.541)">
          <path id="Path_65" data-name="Path 65" d="M400.467,259.569H386.993a.892.892,0,1,1,0-1.784h12.582V222.727a.892.892,0,1,1,1.784,0v35.949A.892.892,0,0,1,400.467,259.569Z" transform="translate(-386.101 -221.835)" fill="#83d0f4"/>
        </g>
        <g id="Group_64" data-name="Group 64" transform="translate(5.157 0.226)">
          <g id="Group_60" data-name="Group 60">
            <path id="Path_66" data-name="Path 66" d="M352.27,184.458a.892.892,0,0,1-.892-.892V178.22a.892.892,0,1,1,1.784,0v5.346A.892.892,0,0,1,352.27,184.458Z" transform="translate(-351.378 -177.328)" fill="#83d0f4"/>
          </g>
          <g id="Group_61" data-name="Group 61" transform="translate(6.139)">
            <path id="Path_67" data-name="Path 67" d="M381.6,184.458a.892.892,0,0,1-.892-.892V178.22a.892.892,0,1,1,1.784,0v5.346A.892.892,0,0,1,381.6,184.458Z" transform="translate(-380.708 -177.328)" fill="#83d0f4"/>
          </g>
          <g id="Group_62" data-name="Group 62" transform="translate(12.278)">
            <path id="Path_68" data-name="Path 68" d="M410.931,184.458a.892.892,0,0,1-.892-.892V178.22a.892.892,0,1,1,1.784,0v5.346A.892.892,0,0,1,410.931,184.458Z" transform="translate(-410.039 -177.328)" fill="#83d0f4"/>
          </g>
          <g id="Group_63" data-name="Group 63" transform="translate(18.416)">
            <path id="Path_69" data-name="Path 69" d="M440.261,184.458a.892.892,0,0,1-.892-.892V178.22a.892.892,0,0,1,1.784,0v5.346A.892.892,0,0,1,440.261,184.458Z" transform="translate(-439.369 -177.328)" fill="#83d0f4"/>
          </g>
        </g>
        <g id="Group_65" data-name="Group 65" transform="translate(2.832 16.326)">
          <path id="Path_70" data-name="Path 70" d="M364.227,256.039H341.161a.892.892,0,1,1,0-1.784h23.067a.892.892,0,1,1,0,1.784Z" transform="translate(-340.269 -254.255)" fill="#83d0f4"/>
        </g>
        <g id="Group_66" data-name="Group 66" transform="translate(2.832 31.936)">
          <path id="Path_71" data-name="Path 71" d="M364.227,330.619H341.161a.892.892,0,1,1,0-1.784h23.067a.892.892,0,1,1,0,1.784Z" transform="translate(-340.269 -328.835)" fill="#83d0f4"/>
        </g>
        <g id="Group_70" data-name="Group 70" transform="translate(6.63 20.448)">
          <g id="Group_67" data-name="Group 67">
            <path id="Path_72" data-name="Path 72" d="M366.8,275.731H359.31a.892.892,0,0,1,0-1.784H366.8a.892.892,0,1,1,0,1.784Z" transform="translate(-358.418 -273.947)" fill="#83d0f4"/>
          </g>
          <g id="Group_68" data-name="Group 68" transform="translate(0 3.684)">
            <path id="Path_73" data-name="Path 73" d="M369.745,293.331H359.31a.892.892,0,0,1,0-1.784h10.435a.892.892,0,0,1,0,1.784Z" transform="translate(-358.418 -291.547)" fill="#83d0f4"/>
          </g>
          <g id="Group_69" data-name="Group 69" transform="translate(0 7.366)">
            <path id="Path_74" data-name="Path 74" d="M372.691,310.927H359.31a.892.892,0,0,1,0-1.784h13.381a.892.892,0,1,1,0,1.784Z" transform="translate(-358.418 -309.143)" fill="#83d0f4"/>
          </g>
        </g>
        <g id="Group_71" data-name="Group 71" transform="translate(9.293 45.501)">
          <path id="Path_75" data-name="Path 75" d="M372.032,395.423a.9.9,0,0,1-.63-.262.891.891,0,0,1-.262-.63.9.9,0,0,1,.262-.63.919.919,0,0,1,1.26,0,.892.892,0,0,1-.63,1.522Z" transform="translate(-371.14 -393.651)" fill="#83d0f4"/>
        </g>
      </g>
    </g>
  </g>
</svg>
