<svg xmlns="http://www.w3.org/2000/svg" width="92.6" height="62.9" viewBox="0 0 92.6 62.9"><g data-name="Group 76"><g data-name="Group 74" fill="#83d0f4"><path data-name="Path 76" d="M34.3 29h-27a1.4 1.4 0 100 2.7h27a1.4 1.4 0 100-2.8z"/><path data-name="Path 77" d="M38.8 23.3H7.4a1.4 1.4 0 100 2.7h31.4a1.4 1.4 0 100-2.7z"/><path data-name="Path 78" d="M43.3 17.6h-36a1.4 1.4 0 100 2.8h36a1.4 1.4 0 000-2.8z"/><path data-name="Path 79" d="M79.6 47.5V1 1c0-.1 0 0 0 0V.8.7h-.1V.6.5h-.1V.4l-.1-.1h-.1c-.1 0 0-.1 0-.1L79 .1H79l-.1-.1H5.1v.1H5v.1H5v.1L.3 5.8.1 6V6H0c-.1 0 0 .1 0 .1v47.1a1.1 1.1 0 001 1.1h72.7a1.1 1.1 0 00.8-.3l4.7-5.5a1.1 1.1 0 00.3-1zm-2.3-.8h-2.4V6.9l2.4-2.7zM72.6 11H2.3V7.7h70.3zM2.3 13.3h70.3v22H2.3zM74.9 49h1L75 50zm1-46.7l-2.7 3H3.6l1-1.1 1.7-2h69.6zM72.6 49v3H2.3V37.6h70.3V49z"/></g><g data-name="Group 75"><g data-name="Group 73" fill="#fff"><path data-name="Rectangle 38" d="M62.5 16.4h29.6V27H62.5z"/><path data-name="Rectangle 39" d="M65.6 25.6h23.5V62H65.6z"/></g><g data-name="Group 72"><g data-name="Group 57"><path data-name="Path 63" d="M91.7 27H63a.9.9 0 01-1-1v-9.5a.9.9 0 011-.9h28.7a.9.9 0 01.9.9V26a.9.9 0 01-.9.9zM64 25.2h27v-7.8h-27z" fill="#83d0f4"/></g><g data-name="Group 58"><path data-name="Path 64" d="M70.2 62.9h-4.4a.9.9 0 01-.9-1V26a.9.9 0 111.8 0v35h3.5a.9.9 0 110 1.9z" fill="#83d0f4"/></g><g data-name="Group 59"><path data-name="Path 65" d="M88.9 62.9H75.4a.9.9 0 110-1.8H88V26a.9.9 0 111.8 0V62a.9.9 0 01-1 .9z" fill="#83d0f4"/></g><g data-name="Group 64"><g data-name="Group 60"><path data-name="Path 66" d="M68.1 23a.9.9 0 01-.9-1v-5.3a.9.9 0 111.8 0v5.4a.9.9 0 01-.9.9z" fill="#83d0f4"/></g><g data-name="Group 61"><path data-name="Path 67" d="M74.3 23a.9.9 0 01-1-1v-5.3a.9.9 0 111.9 0v5.4a.9.9 0 01-1 .9z" fill="#83d0f4"/></g><g data-name="Group 62"><path data-name="Path 68" d="M80.4 23a.9.9 0 01-.9-1v-5.3a.9.9 0 111.8 0v5.4a.9.9 0 01-.9.9z" fill="#83d0f4"/></g><g data-name="Group 63"><path data-name="Path 69" d="M86.6 23a.9.9 0 01-1-1v-5.3a.9.9 0 011.8 0v5.4a.9.9 0 01-.8.9z" fill="#83d0f4"/></g></g><g data-name="Group 65"><path data-name="Path 70" d="M88.9 33.7h-23a.9.9 0 110-1.8h23a.9.9 0 110 1.8z" fill="#83d0f4"/></g><g data-name="Group 66"><path data-name="Path 71" d="M88.9 49.3h-23a.9.9 0 110-1.8h23a.9.9 0 110 1.8z" fill="#83d0f4"/></g><g data-name="Group 70"><g data-name="Group 67"><path data-name="Path 72" d="M77.1 37.8h-7.5a.9.9 0 010-1.8h7.5a.9.9 0 110 1.8z" fill="#83d0f4"/></g><g data-name="Group 68"><path data-name="Path 73" d="M80 41.5H69.6a.9.9 0 010-1.8H80a.9.9 0 010 1.8z" fill="#83d0f4"/></g><g data-name="Group 69"><path data-name="Path 74" d="M83 45.2H69.6a.9.9 0 010-1.8H83a.9.9 0 110 1.8z" fill="#83d0f4"/></g></g><g data-name="Group 71"><path data-name="Path 75" d="M72.3 62.9a.9.9 0 01-.7-.3.9.9 0 01-.2-.6.9.9 0 01.2-.6 1 1 0 011.3 0 .9.9 0 01-.6 1.5z" fill="#83d0f4"/></g></g></g></g></svg>