<svg xmlns="http://www.w3.org/2000/svg" width="73.475" height="63.419" viewBox="0 0 73.475 63.419">
  <g id="Group_39" data-name="Group 39" transform="translate(-973.5 -7196.5)">
    <g id="Group_37" data-name="Group 37" transform="translate(974 7197)">
      <g id="Group_24" data-name="Group 24">
        <path id="Path_37" data-name="Path 37" d="M281.1,54.292H220.939a6.186,6.186,0,0,1-6.2-6.2V6.2a6.186,6.186,0,0,1,6.2-6.2h60.073a6.186,6.186,0,0,1,6.2,6.2V48.092A6.115,6.115,0,0,1,281.1,54.292ZM220.939,1.843A4.364,4.364,0,0,0,216.666,6.2V48.092a4.38,4.38,0,0,0,4.357,4.357H281.1a4.38,4.38,0,0,0,4.357-4.357V6.2A4.38,4.38,0,0,0,281.1,1.843Z" transform="translate(-214.739)" fill="#83d0f4" stroke="#83d0f4" stroke-width="1"/>
      </g>
      <g id="Group_25" data-name="Group 25" transform="translate(14.152 52.434)">
        <path id="Path_38" data-name="Path 38" d="M338.5,308.017H296.108a.88.88,0,0,1-.754-.419.771.771,0,0,1-.084-.838l3.184-8.127a.957.957,0,0,1,1.76.754l-2.681,6.786h39.629l-2.681-6.786a.957.957,0,0,1,1.76-.754l3.184,8.127a.993.993,0,0,1-.084.838A1.163,1.163,0,0,1,338.5,308.017Z" transform="translate(-295.178 -298.032)" fill="#83d0f4" stroke="#83d0f4" stroke-width="1"/>
      </g>
    </g>
    <g id="Group_38" data-name="Group 38" transform="translate(983.635 7204.122)">
      <g id="Group_29" data-name="Group 29" transform="translate(0 25.47)">
        <g id="Group_26" data-name="Group 26" transform="translate(6.116 3.1)">
          <path id="Path_39" data-name="Path 39" d="M344.4,204.715H305.191a.922.922,0,1,1,0-1.843H344.4a.922.922,0,0,1,0,1.843Z" transform="translate(-304.269 -202.872)" fill="#83d0f4" stroke="#83d0f4" stroke-width="1"/>
        </g>
        <g id="Group_27" data-name="Group 27" transform="translate(45.243)">
          <path id="Path_40" data-name="Path 40" d="M530.688,193.3a4.022,4.022,0,1,1,4.022-4.022A4.022,4.022,0,0,1,530.688,193.3Zm0-6.116a2.095,2.095,0,1,0,2.095,2.094A2.024,2.024,0,0,0,530.688,187.179Z" transform="translate(-526.666 -185.252)" fill="#83d0f4" stroke="#83d0f4" stroke-width="1"/>
        </g>
        <g id="Group_28" data-name="Group 28">
          <path id="Path_41" data-name="Path 41" d="M273.527,193.3a4.022,4.022,0,1,1,4.022-4.022A4.135,4.135,0,0,1,273.527,193.3Zm0-6.116a2.095,2.095,0,1,0,2.095,2.094A2.128,2.128,0,0,0,273.527,187.179Z" transform="translate(-269.505 -185.252)" fill="#83d0f4" stroke="#83d0f4" stroke-width="1"/>
        </g>
      </g>
      <g id="Group_34" data-name="Group 34" transform="translate(17.259)">
        <g id="Group_30" data-name="Group 30" transform="translate(2.346)">
          <path id="Path_42" data-name="Path 42" d="M395.017,49.025H380.941V43.076a2.61,2.61,0,0,1,2.6-2.6h8.881a2.61,2.61,0,0,1,2.6,2.6v5.949Zm-12.149-1.843h10.306V43.076a.751.751,0,0,0-.754-.754h-8.881a.751.751,0,0,0-.754.754v4.105Z" transform="translate(-380.941 -40.479)" fill="#83d0f4" stroke="#83d0f4" stroke-width="1"/>
        </g>
        <g id="Group_31" data-name="Group 31" transform="translate(0 6.659)">
          <path id="Path_43" data-name="Path 43" d="M376.991,102.084a.88.88,0,0,1-.754-.419l-8.462-12.4a1.245,1.245,0,0,1-.167-.754l2.43-9.467a.955.955,0,1,1,1.843.5l-2.262,9.049,7.457,10.892,7.457-10.892-2.262-9.049a.955.955,0,0,1,1.843-.5l2.43,9.467a.854.854,0,0,1-.168.754l-8.63,12.4A.88.88,0,0,1,376.991,102.084Z" transform="translate(-367.607 -78.329)" fill="#83d0f4" stroke="#83d0f4" stroke-width="1"/>
        </g>
        <g id="Group_32" data-name="Group 32" transform="translate(8.462 6.703)">
          <path id="Path_44" data-name="Path 44" d="M416.628,87.458a.93.93,0,0,1-.922-.922V79.5a.922.922,0,0,1,1.843,0v7.038A.93.93,0,0,1,416.628,87.458Z" transform="translate(-415.706 -78.577)" fill="#83d0f4" stroke="#83d0f4" stroke-width="1"/>
        </g>
        <g id="Group_33" data-name="Group 33" transform="translate(5.949 13.741)">
          <path id="Path_45" data-name="Path 45" d="M404.854,125.45a3.435,3.435,0,1,1,3.435-3.435A3.4,3.4,0,0,1,404.854,125.45Zm0-5.027a1.592,1.592,0,1,0,1.592,1.592A1.591,1.591,0,0,0,404.854,120.423Z" transform="translate(-401.419 -118.58)" fill="#83d0f4" stroke="#83d0f4" stroke-width="1"/>
        </g>
      </g>
    </g>
  </g>
</svg>
