<svg width="80" height="41" fill="none" xmlns="http://www.w3.org/2000/svg"><path d="M71.31 33.54v2.63c0 .64.2.93.63.93.16 0 .32-.02.48-.06l.04.67c-.23.09-.47.13-.72.14a1.13 1.13 0 01-.92-.38 1.9 1.9 0 01-.36-1.3v-2.63h-.73v-.74h.73v-1.17l.84-.24v1.41h1.21v.7l-1.2.04zm-2.1 4.2h-1l-.69-1.09c-.18-.27-.33-.54-.5-.84-.11.22-.23.42-.36.64l-.13.2-.7 1.11h-.93l1.68-2.52-1.6-2.44h.98l.67 1.06.47.8.37-.66.09-.15.64-1.05h.96l-1.64 2.42 1.68 2.53zm-7.88-2.95c.06-.53.4-1.42 1.28-1.42a1.04 1.04 0 01.77.3c.26.31.4.71.39 1.13h-2.44zm2.88-1.26a1.68 1.68 0 00-1.53-.85c-1.3 0-2.2 1.1-2.2 2.66-.03.66.19 1.3.61 1.8a2.2 2.2 0 001.69.68c.53.02 1.06-.08 1.55-.3l-.14-.65a2.87 2.87 0 01-1.93.15 1.51 1.51 0 01-.93-1.58h3.25v-.05-.38c0-.52-.13-1.04-.4-1.5l.03.02zM59.7 34.8v2.96h-.85v-2.83c0-1.25-.65-1.44-1.06-1.44a1.3 1.3 0 00-1.17 1.31v2.96h-.9v-3.59-1.32h.77l.07.8a1.68 1.68 0 011.54-.92c.27 0 1.68.09 1.68 2.1l-.08-.03zm-6.82-2v.84h-.29a1.2 1.2 0 00-1.1 1.09V37.76h-.84V34.4v-1.52h.77v.95a1.41 1.41 0 011.29-1.07h.25l-.08.04zm-3.28 4.96h-.78v-.78a1.76 1.76 0 01-1.55.87 1.48 1.48 0 01-1.08-.44 2.42 2.42 0 01-.6-1.7v-2.9h.84v2.72c0 1.04.33 1.54 1.02 1.54a1.23 1.23 0 001.1-.8c.05-.14.07-.29.08-.44V32.8h.84v4.95l.13.01zm-7.04-.58c-.85 0-1.4-.79-1.4-1.87 0-.94.43-1.89 1.41-1.89s1.39.97 1.39 1.87c0 1.1-.6 1.9-1.4 1.9zm1.68-3.76a2.1 2.1 0 00-1.63-.7 2.24 2.24 0 00-1.7.7 2.75 2.75 0 00-.63 1.9 2.25 2.25 0 002.6 2.52c.46-.07.9-.28 1.23-.6a2.7 2.7 0 00.73-2c.03-.66-.19-1.32-.61-1.83l.01.01zm-4.13-.62l-1.28 3.55c-.65 1.8-1.05 2.57-1.59 3.08-.3.28-.65.48-1.05.58l-.22-.77c.27-.1.52-.24.74-.43a2.73 2.73 0 00.77-1.16.84.84 0 00-.05-.24l-1.7-4.53h.96l1.01 2.9.3.98.1-.3c.05-.23.12-.47.2-.7l.89-2.96h.92zm-10.13 1.98c.06-.54.4-1.42 1.28-1.42a1.08 1.08 0 01.78.3c.26.3.4.7.38 1.12h-2.44zm2.89-1.27a1.69 1.69 0 00-1.54-.84c-1.29 0-2.2 1.1-2.2 2.65-.02.66.2 1.3.61 1.8a2.21 2.21 0 001.7.69 3.5 3.5 0 001.55-.3l-.16-.65a2.84 2.84 0 01-1.92.14 1.51 1.51 0 01-.94-1.57h3.27v-.05V35c0-.53-.13-1.05-.4-1.5h.03zm-5.35-.02v2.68c0 .64.2.93.61.93.17 0 .33-.02.5-.06v.67c-.25.09-.5.13-.77.12a1.13 1.13 0 01-.84-.34 1.86 1.86 0 01-.33-1.32v-2.63h-.73v-.74h.73v-1.17l.84-.24v1.41h1.22v.7H27.5zm-4.16 3.65a.75.75 0 01-.79-.84.84.84 0 01.26-.66c.45-.34 1-.49 1.56-.42h.12v.84c0 .1-.02.19-.05.28a1.14 1.14 0 01-1.1.84v-.04zm2.07.6a7.34 7.34 0 01-.07-1.17v-1.83c0-1.68-.97-2.01-1.79-2.01a2.73 2.73 0 00-1.53.43l.2.6c.35-.23.76-.36 1.2-.36.46 0 1.03.2 1.03 1.13v.08a3.27 3.27 0 00-2.32.69 1.54 1.54 0 00-.46 1.15 1.37 1.37 0 001.46 1.4 1.7 1.7 0 001.44-.73l.07.61h.79l-.02.02zm-6.59-.73c-.84 0-1.36-.7-1.36-1.75 0-1.06.55-1.84 1.37-1.84a1.23 1.23 0 011.16.93c.04.13.06.27.05.4v.84c0 .17-.02.33-.06.48a1.23 1.23 0 01-1.16.94zm1.36-4.2l-.04.72a1.52 1.52 0 00-1.45-.84 1.91 1.91 0 00-1.47.68 2.88 2.88 0 00-.65 1.94c0 .6.2 1.2.57 1.68a1.81 1.81 0 002.28.47c.27-.15.48-.36.63-.62v.53c0 1.4-.84 1.68-1.48 1.68-.48 0-.96-.13-1.36-.39l-.21.7c.46.28 1 .42 1.55.4.62.03 1.22-.18 1.69-.58A2.92 2.92 0 0020.9 37V34.2v-1.35l-.72-.05zm-4.39 4.92h-.84V32.8h.84v4.93zm.1-6.29a.52.52 0 01-.16.4.5.5 0 01-.4.15.53.53 0 01-.53-.55.54.54 0 01.34-.53.55.55 0 01.21-.04.52.52 0 01.53.57zm-1.75 1.36l-1.84 4.96h-.85L9.71 32.8h.93l.91 2.76c.16.48.28.84.38 1.24.09-.37.22-.75.38-1.24l.92-2.76h.92zm-6.82 4.4a.75.75 0 01-.78-.85.84.84 0 01.26-.66c.45-.33 1-.48 1.55-.42h.13v.84c0 .1-.02.2-.05.28a1.14 1.14 0 01-1.1.84v-.04zm2.08.6a7.34 7.34 0 01-.08-1.18v-1.88c0-1.68-.97-2.01-1.78-2.01a2.7 2.7 0 00-1.53.43l.2.6c.34-.24.76-.37 1.19-.37.68 0 1.05.39 1.05 1.13v.08c-.84-.07-1.68.2-2.33.72a1.54 1.54 0 00-.46 1.16 1.37 1.37 0 001.45 1.37 1.7 1.7 0 001.42-.73l.07.61h.8v.07zM4.9 30.9v6.85h-.85L1.96 34.3c-.45-.73-.85-1.49-1.2-2.26 0 .84.06 1.68.06 2.8v2.93H0v-6.85h.94L3 34.37c.43.71.82 1.45 1.16 2.2-.08-.94-.1-1.8-.1-2.8v-2.86h.82zM76.63 4.78a2.4 2.4 0 002.36-2.85A2.38 2.38 0 0075.72.18a2.4 2.4 0 00-.78 3.9c.45.44 1.05.7 1.69.7zm-2.06-2.4A2.03 2.03 0 0177 .4a2.04 2.04 0 011.49 2.78 2.04 2.04 0 01-3.34.65c-.38-.38-.6-.9-.6-1.43zM75.7 3.6h.46V2.57h.54l.4 1.02h.55l-.52-1.06a.62.62 0 00.44-.62c0-.73-.54-.84-1.03-.84h-.84v2.52zm.46-2.08h.51c.27 0 .43.11.43.33 0 .22-.18.33-.39.33h-.55V1.5zM28.64 15.52c.07 4.27 2.74 7.68 5.9 7.62 3.17-.06 5.77-3.56 5.7-7.82-.08-4.26-2.74-7.67-5.91-7.62-3.18.05-5.76 3.57-5.7 7.82zm23.45-5.14l-.1-.28.1.28zm1.93 17.65c.13-.21.3-.55.52-.97l-.52.97zm.17-19.1c0 .08.07.18.11.29l.96 2.33-1.07-2.63zM0 3.45V.61h2.86v23.46H0V3.47zM7.93 6.1v2.2a.84.84 0 01.12-.21c1.12-1.11 2.44-2.2 5.56-2.2 2.97 0 4.9 2.53 4.98 4.12v14.06h-2.55V11.15c0-1.98-1.75-3.41-3.89-3.41-1.78 0-4.06 1.59-4.13 3.2v13.13H5.49V6.1h2.44zm34.39 14.51c1.75 1.58 3.32 2.4 5.34 2.4s3.9-.99 3.9-2.92c0-1.62-1.43-2.52-4-3.64-2.19-.94-3.8-1.6-4.64-2.95.1.6.13 1.21.12 1.82 0 5.23-3.8 9.48-8.51 9.48s-8.48-4.25-8.48-9.48a9.82 9.82 0 013.5-7.68h-5.76v16.43h-2.53V7.64h-2.28V5.96h2.29c.3-3.43 2.45-5.42 5.4-5.42a9.19 9.19 0 013.6.48v2.63h-.09a5 5 0 00-4.02-1.5c-1.68 0-2.82 1.37-2.43 3.79h9.62c.4-.07.8-.1 1.2-.1a8.52 8.52 0 017.72 5.46v-.56c0-3.37 3.26-4.8 6.67-4.8h.38c1.33.06 2.65.28 3.94.64l2.01 4.94 2.87 6.99.33 1.12.38-1.12 3.65-8.98c.67-2.48 3.38-3.55 6.27-3.54 1.3-.03 2.6.19 3.82.64v2.71c-1.6-1.15-2.74-1.82-4.55-1.82-1.6 0-3.5.7-3.5 3.02 0 1.76 1.02 2.08 4.12 3.61 2.53 1.1 4.89 2.31 4.9 5.12 0 4.7-4.64 5.5-6.9 5.51a8.07 8.07 0 01-4.89-1.35v-3.09l.17.14c1.83 1.68 3.45 2.58 5.55 2.58 2.1 0 3.9-.99 3.9-2.92 0-1.62-1.44-2.52-4-3.64-2.57-1.12-4.07-1.76-4.73-3.5-1 2.42-5.66 13.7-6.75 16.12h-2.53l1.11-2.08c.62-1.23 1.54-3.17 2.35-5.04L52.1 10.38l-.28-.62a3.08 3.08 0 00-1.75-2c-.6-.2-1.22-.3-1.85-.3-1.59 0-3.62.7-3.62 3.03 0 1.75 1.15 2.07 4.22 3.6 2.53 1.1 4.89 2.32 4.9 5.13 0 4.69-4.64 5.5-6.9 5.51a8.69 8.69 0 01-4.52-1.08l.03-3.04z" fill="#fff"/></svg>